<svg id="Capa_1" data-name="Capa 1" xmlns="http://www.w3.org/2000/svg" viewBox="0 0 80.16 47.49"><defs><style>.cls-1,.cls-11,.cls-12,.cls-15,.cls-16,.cls-17,.cls-19,.cls-2,.cls-20,.cls-21,.cls-22,.cls-24,.cls-26,.cls-27,.cls-29,.cls-3{fill:none;}.cls-1,.cls-11,.cls-12,.cls-13,.cls-15,.cls-17,.cls-19,.cls-2,.cls-20,.cls-21,.cls-22,.cls-23,.cls-24,.cls-25,.cls-26,.cls-27,.cls-28,.cls-29{stroke:#000;}.cls-1,.cls-19,.cls-20,.cls-21,.cls-22,.cls-23,.cls-26{stroke-miterlimit:20;}.cls-1,.cls-11,.cls-12,.cls-22,.cls-23,.cls-24,.cls-25,.cls-28{stroke-width:0.5px;}.cls-12,.cls-13,.cls-2,.cls-22,.cls-23,.cls-24,.cls-26,.cls-27,.cls-28,.cls-29{stroke-linecap:round;}.cls-12,.cls-13,.cls-2,.cls-28,.cls-29{stroke-linejoin:round;}.cls-2,.cls-26,.cls-27{stroke-width:0.3px;}.cls-16,.cls-3{stroke:#377300;}.cls-11,.cls-15,.cls-16,.cls-17,.cls-24,.cls-25,.cls-27,.cls-3{stroke-miterlimit:10;}.cls-4{font-size:14.3px;}.cls-4,.cls-5{font-family:ArialRoundedMTBold, Arial Rounded MT Bold;}.cls-5{font-size:3.3px;}.cls-6{letter-spacing:-0.02em;}.cls-7{letter-spacing:0em;}.cls-8{letter-spacing:-0.04em;}.cls-9{letter-spacing:-0.02em;}.cls-10{letter-spacing:0.01em;}.cls-14{fill:#377300;}.cls-15,.cls-19{stroke-width:0.1px;}.cls-16,.cls-29{stroke-width:0.2px;}.cls-17,.cls-20{stroke-width:0.01px;}.cls-18{fill:#fff;}.cls-21{stroke-width:0.02px;}</style></defs><title>logo_spam</title><path class="cls-1" d="M35.43,27.08A11.7,11.7,0,0,0,35,23.56c-1.42-5-5.78-8.17-9.73-7s-6,6.1-4.57,11.11A11.63,11.63,0,0,0,22,30.56" transform="translate(-9.5 -6.44)"/><path class="cls-2" d="M89,23.94a8.08,8.08,0,0,1-8,8.13" transform="translate(-9.5 -6.44)"/><path class="cls-2" d="M87.69,23.94a7.48,7.48,0,0,1-7.32,7.64" transform="translate(-9.5 -6.44)"/><path class="cls-3" d="M90.52,38.5" transform="translate(-9.5 -6.44)"/><path class="cls-3" d="M90.25,38.1" transform="translate(-9.5 -6.44)"/><text class="cls-4" transform="translate(1.97 39.66) scale(1.4 1)">s</text><text class="cls-4" transform="translate(60.38 39.66) scale(1.4 1)">m</text><text class="cls-4" transform="translate(53.17 30.42) rotate(180) scale(1.4 1)">A</text><text class="cls-4" transform="translate(18.59 39.66) scale(1.4 1)">p</text><text class="cls-5" transform="translate(0.9 46.8) scale(1.2 1)">Societ<tspan class="cls-6" x="10.18" y="0">a</tspan><tspan class="cls-7" x="12.06" y="0">t P</tspan><tspan class="cls-8" x="16.25" y="0">r</tspan><tspan x="17.57" y="0">otecto</tspan><tspan class="cls-9" x="27.82" y="0">r</tspan><tspan x="29.18" y="0">a </tspan><tspan class="cls-10" x="31.97" y="0">d</tspan><tspan class="cls-7" x="34.07" y="0">’Animals de M</tspan><tspan class="cls-9" x="56.35" y="0">a</tspan><tspan x="58.23" y="0">taró </tspan></text><path class="cls-11" d="M40.79,26.19l0,.11" transform="translate(-9.5 -6.44)"/><path class="cls-1" d="M59.24,26.42A19.45,19.45,0,0,0,60,21.15C60,13.33,55.52,7,50.05,7s-9.9,6.34-9.9,14.16a19.84,19.84,0,0,0,.67,5.15" transform="translate(-9.5 -6.44)"/><path class="cls-11" d="M58.66,26.42" transform="translate(-9.5 -6.44)"/><path class="cls-11" d="M58.35,27.42" transform="translate(-9.5 -6.44)"/><polyline class="cls-12" points="33.93 4.18 32.41 3.31 30.65 5.11 28.57 4.87 28.57 2.59 31.25 0.25 35.47 2.05 35.9 2.21"/><path d="M39.45,11.55a1.5,1.5,0,0,0,0-3,1.5,1.5,0,0,0,0,3Z" transform="translate(-9.5 -6.44)"/><path d="M40.35,10.65a1.5,1.5,0,0,0,0-3,1.5,1.5,0,0,0,0,3Z" transform="translate(-9.5 -6.44)"/><path d="M40.89,10a1.5,1.5,0,0,0,0-3,1.5,1.5,0,0,0,0,3Z" transform="translate(-9.5 -6.44)"/><path d="M42.21,9.72a.61.61,0,0,1,.63.38l.43-.76.07,0-.62.62c.82.31,1.51-.5,2.07-1a.51.51,0,0,0-.22-.84A6.11,6.11,0,0,1,43,7.5c-.43-.24-1-.39-1.33.06a.92.92,0,0,0,0,1.11c.35.46.89.38,1.35.63s1.07-.56.5-.87a2.81,2.81,0,0,0-.74-.25c-.11,0-.45-.2-.45.1,0,.05.32.2.36.22a7,7,0,0,0,1.6.64l-.22-.84c-.24.2-.76.84-1.09.71s-.68.28-.61.62a.88.88,0,0,0,.89.71.51.51,0,0,0,.44-.75,1.57,1.57,0,0,0-1.5-.87c-.64,0-.64,1,0,1Z" transform="translate(-9.5 -6.44)"/><path d="M42.83,13.29c.87-1.19,2.56-1.78,3.89-2.27.73-.28,2-.45,1.83-1.51a2.71,2.71,0,0,0-1.64-1.8C46,7.56,45.1,9.22,44.61,9.8s.29,1.2.7.7.8-.9,1.17-1.38.18-.53.54-.09c.5.6.28.72-.37,1-.37.13-.74.28-1.1.44A8,8,0,0,0,42,12.78c-.38.52.48,1,.86.51Z" transform="translate(-9.5 -6.44)"/><path d="M43.29,12.05a.5.5,0,0,0,0-1,.5.5,0,0,0,0,1Z" transform="translate(-9.5 -6.44)"/><path d="M44,11.63A4.08,4.08,0,0,1,45.41,10l-.83-.48a4.66,4.66,0,0,0-.33,1.27.48.48,0,0,0,.25.43c.56.26,1.3-.2,1.76-.52A2.62,2.62,0,0,0,47.41,9h-1l.16.4c.23.59,1.19.34,1-.27l-.15-.4c-.16-.41-.87-.54-1,0a2.14,2.14,0,0,1-1.76,1.6l.39.05-.07,0,.25.43a4.14,4.14,0,0,1,.29-1,.5.5,0,0,0-.83-.48A4.73,4.73,0,0,0,43,11.36c-.19.62.78.88,1,.27Z" transform="translate(-9.5 -6.44)"/><path d="M42.21,13.67a.5.5,0,0,0,0-1,.5.5,0,0,0,0,1Z" transform="translate(-9.5 -6.44)"/><path d="M47.08,13.73a.5.5,0,0,0,0-1,.5.5,0,0,0,0,1Z" transform="translate(-9.5 -6.44)"/><path d="M52.89,13.73a.5.5,0,0,0,0-1,.5.5,0,0,0,0,1Z" transform="translate(-9.5 -6.44)"/><ellipse class="cls-13" cx="40.55" cy="9.91" rx="1.27" ry="0.84"/><polyline class="cls-12" points="47.47 4.18 48.99 3.31 50.75 5.11 52.83 4.87 52.83 2.59 50.15 0.25 45.93 2.05 45.51 2.21"/><line class="cls-2" x1="45.31" y1="10.27" x2="51.73" y2="8.77"/><line class="cls-2" x1="45.51" y1="11.13" x2="52.2" y2="10.38"/><line class="cls-2" x1="35.93" y1="10.15" x2="29.51" y2="8.66"/><line class="cls-2" x1="35.74" y1="11.01" x2="29.04" y2="10.27"/><path class="cls-2" d="M50.14,17.79c0,1-1.37,1.86-3.06,1.86" transform="translate(-9.5 -6.44)"/><path class="cls-2" d="M50.17,17.79c0,1,1.22,1.86,2.72,1.86" transform="translate(-9.5 -6.44)"/><path class="cls-14" d="M40.63,26.86a.25.25,0,0,0,0-.5.25.25,0,0,0,0,.5Z" transform="translate(-9.5 -6.44)"/><path class="cls-14" d="M40.62,26.85a.25.25,0,0,0,0-.5.25.25,0,0,0,0,.5Z" transform="translate(-9.5 -6.44)"/><path d="M40.67,26.34a.05.05,0,1,0,0-.1.05.05,0,0,0,0,.1Z" transform="translate(-9.5 -6.44)"/><line class="cls-15" x1="31.11" y1="19.86" x2="31.56" y2="19.82"/><line class="cls-15" x1="31.53" y1="19.87" x2="31.52" y2="19.79"/><path class="cls-14" d="M59.46,26.64a.1.1,0,0,0,0-.2.1.1,0,0,0,0,.2Z" transform="translate(-9.5 -6.44)"/><path class="cls-14" d="M59.47,26.64a.1.1,0,0,0,0-.2.1.1,0,0,0,0,.2Z" transform="translate(-9.5 -6.44)"/><path class="cls-14" d="M59.5,26.64a.1.1,0,0,0,0-.2.1.1,0,0,0,0,.2Z" transform="translate(-9.5 -6.44)"/><path class="cls-14" d="M59.39,26.64a.1.1,0,0,0,0-.2.1.1,0,0,0,0,.2Z" transform="translate(-9.5 -6.44)"/><path class="cls-14" d="M59.36,26.64a.1.1,0,0,0,0-.2.1.1,0,0,0,0,.2Z" transform="translate(-9.5 -6.44)"/><path class="cls-14" d="M59.32,26.64a.1.1,0,0,0,0-.2.1.1,0,0,0,0,.2Z" transform="translate(-9.5 -6.44)"/><path class="cls-14" d="M59.29,26.64a.1.1,0,0,0,0-.2.1.1,0,0,0,0,.2Z" transform="translate(-9.5 -6.44)"/><line class="cls-16" x1="49.49" y1="20.04" x2="50.06" y2="20.1"/><line class="cls-17" x1="49.5" y1="19.94" x2="49.71" y2="19.96"/><path class="cls-18" d="M59,26.37h0s0,0,0,0h0Z" transform="translate(-9.5 -6.44)"/><path d="M59,26.37v0h0a0,0,0,0,0,0,0Z" transform="translate(-9.5 -6.44)"/><path d="M59,26.37s0,0,0,0,0,0,0,0Z" transform="translate(-9.5 -6.44)"/><path d="M59,26.37s0,0,0,0,0,0,0,0Z" transform="translate(-9.5 -6.44)"/><path d="M59,26.34s0,0,0,0h0c.07,0,.16,0,0,0h0s.15,0,0,0c0,0,0,0,0,0h.06s0,0,0,0h0s0,0,0,0,0,0,0,0,0,0,.05,0h0a.45.45,0,0,0-.11,0h0s0,0,0,0Z" transform="translate(-9.5 -6.44)"/><path d="M59,26.38s0,0,0,0,0,0,0,0Z" transform="translate(-9.5 -6.44)"/><path d="M59.08,26.38h0s0,0,0,0h0s0,0,0,0Z" transform="translate(-9.5 -6.44)"/><path class="cls-1" d="M64.49,27.38" transform="translate(-9.5 -6.44)"/><path class="cls-1" d="M78.65,30.73a24.9,24.9,0,0,0,1.72-5c1.74-7.63-.26-14.59-4.47-15.55s-9,4.44-10.78,12.06A25.49,25.49,0,0,0,64.5,27" transform="translate(-9.5 -6.44)"/><rect class="cls-19" x="54.82" y="20.44" width="0.38" height="0.08"/><rect class="cls-19" x="64.31" y="26.98" width="0.37" height="0.02" transform="translate(-4.49 -16.18) rotate(8.98)"/><line class="cls-20" x1="55.25" y1="20.65" x2="55.25" y2="20.57"/><line class="cls-20" x1="54.76" y1="20.58" x2="55.16" y2="20.63"/><path class="cls-20" d="M64.73,27.06v0" transform="translate(-9.5 -6.44)"/><path class="cls-20" d="M64.74,27s0,0,0,.07" transform="translate(-9.5 -6.44)"/><path class="cls-20" d="M64.72,27.09a.09.09,0,0,0,0-.05s0,0,0,0v0A.43.43,0,0,0,64.72,27.09Z" transform="translate(-9.5 -6.44)"/><path class="cls-20" d="M64.73,27.08" transform="translate(-9.5 -6.44)"/><path class="cls-20" d="M64.72,27a0,0,0,0,1,0,0" transform="translate(-9.5 -6.44)"/><path class="cls-20" d="M64.71,27.08h0" transform="translate(-9.5 -6.44)"/><path class="cls-20" d="M64.72,27.07" transform="translate(-9.5 -6.44)"/><path class="cls-20" d="M64.71,27.07h0" transform="translate(-9.5 -6.44)"/><path class="cls-20" d="M64.66,27h0" transform="translate(-9.5 -6.44)"/><path class="cls-20" d="M64.74,27.09" transform="translate(-9.5 -6.44)"/><path class="cls-20" d="M64.74,27.05a0,0,0,0,1,0,0" transform="translate(-9.5 -6.44)"/><path class="cls-20" d="M64.74,27.09l0,0" transform="translate(-9.5 -6.44)"/><path class="cls-20" d="M64.74,27.09" transform="translate(-9.5 -6.44)"/><line class="cls-20" x1="55.15" y1="20.63" x2="55.25" y2="20.65"/><path d="M64.72,27.07v0s0,0,0,0h0s0,0,0,0Z" transform="translate(-9.5 -6.44)"/><path d="M64.72,27.09s0,0,0,0,0,0,0,0Z" transform="translate(-9.5 -6.44)"/><path d="M64.72,27.09s0,0,0,0,0,0,0,0Z" transform="translate(-9.5 -6.44)"/><path d="M64.72,27.09s0,0,0,0,0,0,0,0Z" transform="translate(-9.5 -6.44)"/><path d="M64.26,27s0,0,0,0,0,0,0,0Z" transform="translate(-9.5 -6.44)"/><path d="M64.26,27s0,0,0,0,0,0,0,0Z" transform="translate(-9.5 -6.44)"/><path d="M64.26,27s0,0,0,0,0,0,0,0Z" transform="translate(-9.5 -6.44)"/><path d="M64.72,27.09s0,0,0,0,0,0,0,0Z" transform="translate(-9.5 -6.44)"/><path d="M64.72,27.09s0,0,0,0,0,0,0,0Z" transform="translate(-9.5 -6.44)"/><path d="M64.73,27.09s0,0,0,0,0,0,0,0Z" transform="translate(-9.5 -6.44)"/><path d="M64.73,27.09s0,0,0,0,0,0,0,0Z" transform="translate(-9.5 -6.44)"/><path class="cls-21" d="M64.75,27.09" transform="translate(-9.5 -6.44)"/><line class="cls-20" x1="68.92" y1="24.21" x2="69.38" y2="24.4"/><line class="cls-20" x1="68.92" y1="24.21" x2="69.28" y2="24.35"/><line class="cls-20" x1="69.12" y1="24.29" x2="69.32" y2="24.37"/><line class="cls-20" x1="68.92" y1="24.2" x2="69.16" y2="24.29"/><line class="cls-20" x1="68.92" y1="24.2" x2="69.16" y2="24.29"/><line class="cls-20" x1="68.93" y1="24.19" x2="69.16" y2="24.28"/><line class="cls-20" x1="68.93" y1="24.19" x2="69.16" y2="24.28"/><line class="cls-20" x1="68.93" y1="24.2" x2="69.33" y2="24.36"/><path class="cls-21" d="M78.87,30.84" transform="translate(-9.5 -6.44)"/><line class="cls-22" x1="62.73" y1="11.75" x2="66.12" y2="12.77"/><line class="cls-22" x1="63.86" y1="14.12" x2="66.12" y2="12.77"/><line class="cls-23" x1="62.73" y1="11.75" x2="63.86" y2="14.12"/><path d="M71.85,15.14a.5.5,0,0,0,0-1,.5.5,0,0,0,0,1Z" transform="translate(-9.5 -6.44)"/><path d="M77.61,16.85a.5.5,0,0,0,0-1,.5.5,0,0,0,0,1Z" transform="translate(-9.5 -6.44)"/><path d="M72.55,19a2.11,2.11,0,0,0,.88,1.17c.43.28,1.1,0,1.52-.22s.21-.91-.26-.93a.75.75,0,0,1-.49-.19c-.49-.41-1.2.29-.71.71a1.85,1.85,0,0,0,1.2.48l-.25-.93a2,2,0,0,1-.71.19l.35.15a1.59,1.59,0,0,1-.57-.69.5.5,0,0,0-1,.26Z" transform="translate(-9.5 -6.44)"/><path d="M73.59,20.39a.5.5,0,0,0,0-1,.5.5,0,0,0,0,1Z" transform="translate(-9.5 -6.44)"/><path class="cls-24" d="M73.35,20.65a1.8,1.8,0,0,0,1.58,2" transform="translate(-9.5 -6.44)"/><path class="cls-24" d="M73.35,20.52a1.79,1.79,0,0,1-2.24,1.14" transform="translate(-9.5 -6.44)"/><line class="cls-2" x1="55.57" y1="10.48" x2="60.94" y2="13.66"/><line class="cls-2" x1="56.92" y1="9.07" x2="61.15" y2="12.67"/><line class="cls-2" x1="72.88" y1="14.95" x2="66.65" y2="15.34"/><line class="cls-2" x1="72.33" y1="13.08" x2="66.92" y2="14.36"/><line class="cls-2" x1="59.71" y1="6.64" x2="59.55" y2="2.26"/><line class="cls-2" x1="62.35" y1="4.45" x2="59.92" y2="2.02"/><line class="cls-2" x1="70.12" y1="6.76" x2="74.2" y2="6.1"/><line class="cls-2" x1="71.11" y1="10" x2="74.35" y2="6.54"/><path d="M89.66,38.1a19.9,19.9,0,0,0-4-3.45,32.53,32.53,0,0,0-4.74-2.42,56.3,56.3,0,0,0-10.15-3.16,97.71,97.71,0,0,0-21.17-2.15A97.71,97.71,0,0,0,28.39,29.1a57.18,57.18,0,0,0-10.15,3.18,33.45,33.45,0,0,0-4.72,2.44,19.36,19.36,0,0,0-4,3.48,17.66,17.66,0,0,1,3.87-3.7A32.67,32.67,0,0,1,18,31.84a55.49,55.49,0,0,1,10.17-3.48,95.11,95.11,0,0,1,42.68,0,57,57,0,0,1,10.18,3.45,34.15,34.15,0,0,1,4.68,2.65A18,18,0,0,1,89.66,38.1Z" transform="translate(-9.5 -6.44)"/><ellipse class="cls-25" cx="35.47" cy="20.29" rx="1.32" ry="2.22"/><ellipse class="cls-25" cx="45.63" cy="20.29" rx="1.32" ry="2.22"/><ellipse class="cls-25" cx="73.86" cy="29.64" rx="1.61" ry="0.99" transform="translate(20.83 89.83) rotate(-78.7)"/><ellipse class="cls-25" cx="69.09" cy="28.34" rx="1.61" ry="0.99" transform="translate(18.26 84.1) rotate(-78.7)"/><ellipse class="cls-2" cx="78.83" cy="17.46" rx="0.63" ry="0.7"/><path d="M88.28,24.07a.15.15,0,0,0,0-.3.15.15,0,0,0,0,.3Z" transform="translate(-9.5 -6.44)"/><path d="M88.4,24.23c.13-.15.17-.18.16-.38a.15.15,0,0,0-.3,0c0,.1,0,.09-.07.16s.09.37.21.22Z" transform="translate(-9.5 -6.44)"/><path d="M88.41,23.9a.15.15,0,0,0,0-.3.15.15,0,0,0,0,.3Z" transform="translate(-9.5 -6.44)"/><path d="M88.31,23.86a.15.15,0,0,0,0-.3.15.15,0,0,0,0,.3Z" transform="translate(-9.5 -6.44)"/><path d="M88.2,24a.15.15,0,0,0,0-.3.15.15,0,0,0,0,.3Z" transform="translate(-9.5 -6.44)"/><path d="M88.2,24.07a.15.15,0,0,0,0-.3.15.15,0,0,0,0,.3Z" transform="translate(-9.5 -6.44)"/><path d="M88.2,24.12a.15.15,0,0,0,0-.3.15.15,0,0,0,0,.3Z" transform="translate(-9.5 -6.44)"/><path d="M87.78,25c.11-.07,0,.09.22.09s.19-.1.21-.1.12.12.28.11.21-.11.35-.1A.14.14,0,0,0,89,25l0,0c.12-.16-.14-.31-.26-.16.08-.09-.31,0-.27,0s-.16-.11-.28-.11-.1.07-.14.07-.08,0-.11,0-.15-.06-.32.05,0,.37.16.26Z" transform="translate(-9.5 -6.44)"/><path d="M88,24.78l-.12-.11c0,.19.26.27.29.08s0-.41-.24-.4-.25.33-.22.51.33.11.29-.08Z" transform="translate(-9.5 -6.44)"/><path d="M87.84,24.48a.33.33,0,0,0,.12.45.17.17,0,0,0,.18,0,.2.2,0,0,0,.06-.22.15.15,0,0,0-.14-.11c-.13,0-.16,0-.27.13s0,.29.15.25a.45.45,0,0,0,.34-.37L88,24.51l0,.19.3,0v-.17a.15.15,0,1,0-.3,0c0,.13,0,.22.1.3a.15.15,0,0,0,.18,0,.42.42,0,0,0,.11-.15l-.28-.07v.09a.15.15,0,0,0,.3,0l0-.14h-.3a.53.53,0,0,0,0,.25c0,.07.11.14.19.11a.35.35,0,0,0,.21-.38h-.3a.66.66,0,0,0,.09.39.14.14,0,0,0,.17.06.32.32,0,0,0,.14-.44.15.15,0,0,0-.22-.09.28.28,0,0,0,0,.5.15.15,0,0,0,.18,0,.47.47,0,0,0,.16-.42c0-.12-.17-.21-.25-.11a.33.33,0,0,0,.09.56.14.14,0,0,0,.15,0,.47.47,0,0,0,.09-.37.15.15,0,0,0-.29,0,.65.65,0,0,0-.06.24.16.16,0,0,0,.15.15c.24,0,.28-.25.27-.46s-.26-.21-.3,0l-.06.37c0,.11.06.22.18.18s.2-.34.24-.52l-.3,0a2.08,2.08,0,0,1,0,.35.16.16,0,0,0,.26.11A.82.82,0,0,0,89,24.3c0-.19-.29-.19-.3,0a1.26,1.26,0,0,0,0,.58.15.15,0,0,0,.27,0,1.87,1.87,0,0,0,0-.58h-.3a.33.33,0,0,1,0,.26c0,.13-.06.16-.17.09s-.21,0-.3,0-.19.29,0,.3.45.12.62,0,.19-.47.17-.65a.15.15,0,0,0-.3,0,2.07,2.07,0,0,1,0,.5l.28,0a2.07,2.07,0,0,1,0-.43h-.3a2.19,2.19,0,0,1,0,.36l.26.11a2.08,2.08,0,0,0,0-.35.15.15,0,0,0-.29,0,.54.54,0,0,0,0,.31l.19.18.06-.38-.29,0,0,.16.15.15a.43.43,0,0,1,.05-.16l-.3,0c0,.13,0,.16.18.07l-.26-.11-.07.21.18,0v0l-.22-.09c0,.1,0,.12.07.08l.17.06s0-.28,0-.23a.15.15,0,0,0-.3,0v.09l.18.1s0-.25,0-.17c0-.19-.28-.19-.3,0l0,.14h.3v-.09a.15.15,0,0,0-.28-.08l-.06.09.18,0,0,0H88v.17c0,.17.27.21.29,0l0-.19c0-.19-.26-.27-.29-.08l-.13.16.14.25.06,0-.15-.11,0-.08.18,0,0-.11c.07-.17-.22-.25-.29-.08Z" transform="translate(-9.5 -6.44)"/><path d="M87.69,24.47a.69.69,0,0,0,.51.44l0-.29-.15,0-.08.29c.3,0,.55.19.82,0s0-.37-.15-.26-.42,0-.59,0-.27.23-.08.29a.59.59,0,0,0,.23,0c.18,0,.19-.24,0-.3a.51.51,0,0,1-.33-.31c-.09-.17-.35,0-.26.16Z" transform="translate(-9.5 -6.44)"/><path d="M87.63,24.21c0,.2,0,.41,0,.61s.27.19.3,0,0-.41,0-.61-.28-.19-.3,0Z" transform="translate(-9.5 -6.44)"/><path d="M87.71,24.35s-.07.34-.07.34-.08.24,0,.28h0a.15.15,0,0,0,.08-.29h0l0,.27c.18-.08.22-.44.22-.6s-.29-.2-.3,0Z" transform="translate(-9.5 -6.44)"/><path d="M87.78,25h.1a.15.15,0,1,0,0-.3h-.1a.15.15,0,0,0,0,.3Z" transform="translate(-9.5 -6.44)"/><path class="cls-1" d="M29.76,16.76a1,1,0,0,0,.08-.11,1.52,1.52,0,0,1,2-.61,1.52,1.52,0,0,1,.1,2.12l0,.05" transform="translate(-9.5 -6.44)"/><path class="cls-1" d="M30.37,14.08" transform="translate(-9.5 -6.44)"/><path class="cls-1" d="M22.59,17.8l-.12-.08a1.52,1.52,0,0,0-2.1.27,1.53,1.53,0,0,0,.77,2l.06,0" transform="translate(-9.5 -6.44)"/><path class="cls-26" d="M27.93,22.73s0,0,0,.05a.79.79,0,0,1-1.49.38v0" transform="translate(-9.5 -6.44)"/><path class="cls-27" d="M27.45,23.84c.14.33.76.37,1.38.1" transform="translate(-9.5 -6.44)"/><path class="cls-27" d="M27.42,23.76a.92.92,0,0,1-1,.85" transform="translate(-9.5 -6.44)"/><path d="M88.24,24.51a.5.5,0,0,0,0-1,.5.5,0,0,0,0,1Z" transform="translate(-9.5 -6.44)"/><path d="M88.42,24.55a.5.5,0,0,0,0-1,.5.5,0,0,0,0,1Z" transform="translate(-9.5 -6.44)"/><path d="M88.4,24.39a.5.5,0,0,0,0-1,.5.5,0,0,0,0,1Z" transform="translate(-9.5 -6.44)"/><path d="M88.36,24.33a.5.5,0,0,0,0-1,.5.5,0,0,0,0,1Z" transform="translate(-9.5 -6.44)"/><path d="M88.27,24.28a.5.5,0,0,0,0-1,.5.5,0,0,0,0,1Z" transform="translate(-9.5 -6.44)"/><path d="M29.05,20.77a.5.5,0,0,0,0-1,.5.5,0,0,0,0,1Z" transform="translate(-9.5 -6.44)"/><path d="M24.35,22a.5.5,0,0,0,0-1,.5.5,0,0,0,0,1Z" transform="translate(-9.5 -6.44)"/><path d="M38.52,11.41a.5.5,0,0,0,0-1,.5.5,0,0,0,0,1Z" transform="translate(-9.5 -6.44)"/><path d="M39.15,9.27a.5.5,0,0,0,0-1,.5.5,0,0,0,0,1Z" transform="translate(-9.5 -6.44)"/><path d="M47.05,10.2a.5.5,0,0,0,0-1,.5.5,0,0,0,0,1Z" transform="translate(-9.5 -6.44)"/><ellipse class="cls-28" cx="26.66" cy="29.07" rx="0.55" ry="0.84" transform="translate(-16.49 2.05) rotate(-16.03)"/><ellipse class="cls-28" cx="30.39" cy="28.25" rx="0.55" ry="0.84" transform="translate(-16.12 3.05) rotate(-16.03)"/><line class="cls-29" x1="13.79" y1="17.35" x2="9.61" y2="17.04"/><line class="cls-29" x1="13.7" y1="17.92" x2="9.85" y2="18.07"/><line class="cls-29" x1="13.7" y1="18.47" x2="10.12" y2="19.29"/><line class="cls-29" x1="21.72" y1="15.56" x2="25.39" y2="13.54"/><line class="cls-29" x1="22.04" y1="16.05" x2="25.6" y2="14.58"/><line class="cls-29" x1="22.26" y1="16.54" x2="25.86" y2="15.79"/><path d="M21.07,28.48a4.23,4.23,0,0,1-3-1.87,25.88,25.88,0,0,0-1.17-2.36,4,4,0,0,0-2.29-1.42A3.9,3.9,0,0,0,9.74,26c0,.18.25.26.29.08a3.73,3.73,0,0,1,5.57-2.45C17,24.42,17.23,25.72,18,27s1.58,1.43,3,1.75c.18,0,.26-.24.08-.28Z" transform="translate(-9.5 -6.44)"/><path d="M21.33,29.6c-2.07-.83-3.45-1.47-4.73-3.37a4.15,4.15,0,0,0-1.33-1.58c-1.78-1-3.81.32-5.4,1.06-.17.08,0,.34.15.26,1.56-.72,3.42-1.93,5.08-1,1,.58,1.26,1.75,2,2.61,1,1.25,2.74,1.71,4.18,2.29.18.07.26-.22.08-.29Z" transform="translate(-9.5 -6.44)"/><path d="M9.93,26.15c.17-.12.3-.27.46-.4s0-.11-.07-.07-.29.27-.44.38,0,.12,0,.09Z" transform="translate(-9.5 -6.44)"/><path d="M10,26.14a4.05,4.05,0,0,1,.77-.53.05.05,0,1,0-.05-.09,4.37,4.37,0,0,0-.8.55s0,.11.08.07Z" transform="translate(-9.5 -6.44)"/><path d="M13.21,24.37c-.34-.12.16-.37.3-.42.3-.1,1.86-.77,2.07-.37,0,.06.11,0,.08,0-.14-.26-.47-.18-.72-.13s-.64.19-.95.29A4.73,4.73,0,0,0,13,24c-.34.21-.09.33.19.43.06,0,.09-.08,0-.1Z" transform="translate(-9.5 -6.44)"/><path d="M12.26,23.86a.05.05,0,1,0,0-.1.05.05,0,0,0,0,.1Z" transform="translate(-9.5 -6.44)"/><path d="M10.4,25.67c.35-.17.63-.46,1-.62s.74-.23,1.09-.37a1.26,1.26,0,0,0,.53-.3c.05-.05,0-.15,0-.2s.37-.23.57-.3.17-.59-.13-.49-.6.09-.81.35a1,1,0,0,0-.11.23.75.75,0,0,0,0,.21.15.15,0,0,0-.19,0c-.38.2-.82.26-1.21.43s-.63.45-1,.62,0,.56.25.43Z" transform="translate(-9.5 -6.44)"/><path d="M13.73,23.85A4.82,4.82,0,0,1,15,23.49c.32,0,.18-.53-.13-.48a5.47,5.47,0,0,0-1.36.41c-.29.12,0,.55.26.43Z" transform="translate(-9.5 -6.44)"/><path d="M14.1,22.91a3.1,3.1,0,0,0-1.29.44,5.52,5.52,0,0,0-1.17.86c-.23.23.13.59.35.35a5.11,5.11,0,0,1,1.07-.77,2.9,2.9,0,0,1,1.18-.4c.31-.05.18-.53-.14-.48Z" transform="translate(-9.5 -6.44)"/><path d="M12.4,23.81a3.3,3.3,0,0,1-.77.45c-.3.13,0,.56.25.44a3.72,3.72,0,0,0,.87-.54c.25-.2-.1-.55-.35-.35Z" transform="translate(-9.5 -6.44)"/><path d="M13,23a6.58,6.58,0,0,1-1.38.85,1.23,1.23,0,0,0-.68.68c-.13.3.36.43.48.13s.74-.49,1-.68a6.65,6.65,0,0,0,.88-.62c.25-.21-.11-.56-.35-.36Z" transform="translate(-9.5 -6.44)"/><path d="M12.59,23.06c-.46.3-1,.54-1.42.87a4.86,4.86,0,0,0-1,1.22c-.17.27.26.52.44.25a3.61,3.61,0,0,1,1-1.19c.39-.25.8-.47,1.18-.72s0-.6-.25-.43Z" transform="translate(-9.5 -6.44)"/><path d="M83.59,12.58c0,.13.07.27.11.41s.35.1.29-.08-.07-.28-.12-.41a.15.15,0,1,0-.28.08Z" transform="translate(-9.5 -6.44)"/><path d="M83.66,12.75a.15.15,0,0,0,0-.3.15.15,0,1,0,0,.3Z" transform="translate(-9.5 -6.44)"/><path d="M83.8,13.14a.15.15,0,0,0,0-.3.15.15,0,0,0,0,.3Z" transform="translate(-9.5 -6.44)"/><path d="M84,13v0a.15.15,0,0,0-.3,0v0a.15.15,0,0,0,.3,0Z" transform="translate(-9.5 -6.44)"/><path d="M83.64,12.78l0,0a.15.15,0,0,0,.21-.21l0,0a.15.15,0,0,0-.21.21Z" transform="translate(-9.5 -6.44)"/><path d="M83.86,13a.15.15,0,0,0,0-.3.15.15,0,0,0,0,.3Z" transform="translate(-9.5 -6.44)"/><path d="M83.86,13a.15.15,0,1,0,0-.3.15.15,0,0,0,0,.3Z" transform="translate(-9.5 -6.44)"/><path d="M83.86,12.85a.15.15,0,0,0,0-.3.15.15,0,0,0,0,.3Z" transform="translate(-9.5 -6.44)"/><path d="M83.78,12.75a.15.15,0,0,0,0-.3.15.15,0,1,0,0,.3Z" transform="translate(-9.5 -6.44)"/><path d="M83.8,12.74a.15.15,0,0,0,0-.3.15.15,0,0,0,0,.3Z" transform="translate(-9.5 -6.44)"/><path d="M83.83,12.79a.15.15,0,0,0,0-.3.15.15,0,0,0,0,.3Z" transform="translate(-9.5 -6.44)"/><path d="M69.18,8.7c0-.09,0-.17.16-.13a.15.15,0,0,0,.08-.29.4.4,0,0,0-.53.34c0,.19.27.27.29.08Z" transform="translate(-9.5 -6.44)"/></svg>