<?xml version="1.0"?>
<svg xmlns="http://www.w3.org/2000/svg" xmlns:xlink="http://www.w3.org/1999/xlink" version="1.1" id="Capa_1" x="0px" y="0px" viewBox="0 0 58 58" style="enable-background:new 0 0 58 58;" xml:space="preserve" width="512px" height="512px" class=""><g><polygon style="fill:#C7CAC7;" points="49,35 49,52 52,52 52,49 58,49 58,17 0,17 0,49 6,49 6,52 9,52 9,35 " data-original="#C7CAC7" class=""/><polygon style="fill:#374451" points="58,35 58,17 0,17 0,35 9,35 49,35 " data-original="#556080" class="" data-old_color="#556080"/><rect x="6" y="35" style="fill:#52545E" width="46" height="17" data-original="#7383BF" class="active-path" data-old_color="#4D4F5A"/><polygon style="fill:#BABFC6" points="49,0 49,7 49,17 9,17 9,0 " data-original="#EDEADA" class="" data-old_color="#babfc6"/><polyline style="fill:#BABFC6" points="49,35 49,58 9,58 9,35 " data-original="#EDEADA" class="" data-old_color="#babfc6"/><path style="fill:#FFFFFF" d="M41,44H17c-0.553,0-1-0.447-1-1s0.447-1,1-1h24c0.553,0,1,0.447,1,1S41.553,44,41,44z" data-original="#CEC9AE" class="" data-old_color="#ffffff"/><path style="fill:#FFFFFF" d="M41,49H17c-0.553,0-1-0.447-1-1s0.447-1,1-1h24c0.553,0,1,0.447,1,1S41.553,49,41,49z" data-original="#CEC9AE" class="" data-old_color="#ffffff"/><circle style="fill:#6E7A8E" cx="49" cy="26" r="4" data-original="#A4E869" class="" data-old_color="#6D798D"/></g> </svg>
